<svg width="199" height="218" viewBox="0 0 199 218" fill="none" xmlns="http://www.w3.org/2000/svg">
<path d="M10.7962 73.1026C5.46282 58.7692 4.09615 29.2026 41.2962 25.6026C79 21.9538 121.796 58.1026 157.296 57.6026C178.796 57.6026 206.796 32.1026 180.796 15.1026C167 6.082 129.296 -4.8974 111.296 55.6026C102 92.3497 109.996 164.103 102.796 174.103C93.7961 186.603 82.7961 204.103 68.2961 208.603C53.7961 213.103 44.7961 202.85 44.7961 191.603C44.7961 182.85 48 170.573 65.2961 168.103C81.5 165.788 104.129 184.603 114.796 194.103C129.67 207.35 154.296 202.103 178.296 196.103" stroke="#3A85A6" stroke-width="15" stroke-linecap="round"/>
</svg>
